# xmcd
#
# Track frame offsets: 
#        150
#        39230
#        65350
#        88426
#        119263
#        130662
#        153337
#        187875
#        200973
#        223296
#        241315
#        271956
#        307295
#
# Disc length: 4246 seconds
#
# Revision: 5
# Processed by: cddbd v1.5.2PL0 Copyright (c) Steve Scherf et al.
# Submitted via: ExactAudioCopy v0.95b3
#
DISCID=c410940d
DTITLE=Walter Trout and Friends - Full Circle
DYEAR=2006
DGENRE=Blues
TTITLE0=She Takes More Than She Gives (Featuring John Mayall)
TTITLE1=Workin' Overtime (Featuring Jeff Healey)
TTITLE2=Firehouse Mama (Featuring Eric Sardinas)
TTITLE3=Who's Listenin' In (Featuring Coco Montoya)
TTITLE4=Slap Happy (Featuring Junior Watson)
TTITLE5=Wrapped Around Your Finger (Featuring Guitar Shorty)
TTITLE6=A Busy Man (Featuring James Harman)
TTITLE7=Highway Song (Featuring John Mayall)
TTITLE8=When Will It Ever Change (Featuring Bernard Allison)
TTITLE9=Can't Help Falling Apart (Featuring Finis Tasby)
TTITLE10=After Hours (Featuring Deacon Jones)
TTITLE11=Clouds On The Horizon (Featuring Joe Bonamassa)
TTITLE12=Full Circle (Featuring Larry Keene)
EXTD=
EXTT0=
EXTT1=
EXTT2=
EXTT3=
EXTT4=
EXTT5=
EXTT6=
EXTT7=
EXTT8=
EXTT9=
EXTT10=
EXTT11=
EXTT12=
PLAYORDER=
